<svg id="Слой_1" xmlns="http://www.w3.org/2000/svg" viewBox="0 0 175 75"><style>.st0,.st1{fill-rule:evenodd;clip-rule:evenodd;fill:#fff}.st1{fill:#b9b6b7}.st2{fill:#ed4545}</style><path class="st0" d="M114.7 37.6v19h-4.2V33.8c1.2 0 2.2.4 3 1.1.8.8 1.2 1.6 1.2 2.7zm-14.2 15.5v-8.5h4.1v9.1h-4.2v-.1l.1-.5zm0-11.4v-7.9h-4.1v17.7c0 .4 0 .8.2 1.3.1.3.2.6.3.7.1.1.1.3.2.4.4.8 1.1 1.4 1.8 1.9.8.5 1.6.7 2.5.7h2.2c.3 0 .6 0 .9-.1.5-.1 1-.3 1.4-.6.5-.3 1-.7 1.4-1.2.9-1 1.3-2.1 1.3-3.3v-4.5c0-1.3-.4-2.4-1.3-3.4-.8-.8-1.7-1.8-2.8-1.8h-4zM49.6 56.6h-8.8c-.9 0-1.7-.2-2.5-.7-.8-.5-1.4-1.1-1.9-1.8-.5-.8-.7-1.6-.7-2.5V33.8h4.2v19.9h4V33.8H48v19.8h1.6v3zM18.1 23.5l.1 28.1c0 .8-.2 1.7-.7 2.5-.5.8-1.1 1.4-1.9 1.8-.8.5-1.6.7-2.4.7H5.8V50H10v3.8h4.1v-7.5h-3.2c-.9 0-1.7-.2-2.5-.7-.8-.4-1.4-1.1-1.9-1.8-.5-.8-.7-1.6-.7-2.5V23.5H10v19.9h4V23.5h4.1zm15 15.5v.4c0 1.3-.4 2.4-1.3 3.4-.1.1-.2.3-.4.4.1.1.3.2.4.4.9 1 1.3 2.1 1.3 3.4v4.5c0 1.3-.4 2.4-1.3 3.3-.4.5-.9.8-1.4 1.2-.5.3-1 .4-1.4.6-.3 0-.6.1-.9.1h-2.2c-.8 0-1.7-.2-2.5-.7-.8-.5-1.4-1.1-1.8-1.9-.5-.8-.7-1.6-.7-2.4V39c0-.8.2-1.7.7-2.4.4-.8 1.1-1.4 1.8-1.9.8-.5 1.6-.7 2.5-.7h2.2c.3 0 .6 0 .9.1.5.1 1 .3 1.4.6.5.3 1 .7 1.4 1.2.9.7 1.3 1.8 1.3 3.1zm-8.2 5.6h4.2v9.1h-4.2v-9.1zm0-8.5l4.2-.1v5.8h-4.2v-5.7zm46.4 17v-8.5h4.1v9.1h-4.1v-.6zm0-11.4v-7.9h-4.1v17.7c0 .4.1.8.2 1.3.1.3.2.6.3.7.1.1.1.3.2.4.5.8 1.1 1.4 1.9 1.9.8.5 1.6.7 2.5.7h2.2c.3 0 .6 0 .8-.1.5-.1 1-.3 1.4-.6.6-.3 1-.7 1.4-1.2.9-1 1.3-2.1 1.3-3.3v-4.5c0-1.3-.4-2.4-1.3-3.4-.8-.8-1.6-1.8-2.8-1.8h-4zm22.9-7.8V67h-7.1c-1 0-1.9-.2-2.7-.7-.8-.5-1.4-1.1-1.8-1.9-.4-.8-.7-1.7-.7-2.7v-2h4.2v4.4h4v-7.5H87c-.8 0-1.7-.2-2.5-.7-.8-.5-1.4-1.1-1.9-1.9-.5-.8-.7-1.6-.7-2.4V39.4c0-.9.2-1.8.7-2.7.4-.8 1-1.5 1.8-2s1.6-.8 2.6-.8h7.2zm-4 19.8V36.8h-4v16.9h4zM64.3 33.8H57c-.9 0-1.7.2-2.5.7-.8.5-1.4 1.1-1.9 1.9-.5.8-.7 1.6-.7 2.4v17.8H56V36.7h4v19.9h4.1V33.8z"/><path class="st1" d="M97.5 26.3c32.1-15.8 17.9 3.8 59.7-4.9-46.3 12.7-34.6-6.2-59.7 4.9z"/><path class="st0" d="M170.1 9.8c-35.5 28-30.3-3.1-86.4 16 59.6-25.5 57.7 4.1 86.4-16z"/><path class="st0" d="M137.3 10.9c-5.5-5.9-14.8-6.3-20.7-.8-1.8 1.6-3 3.6-3.8 5.7l2-.4 2.8-.4c.6-1.1 1.4-2.1 2.4-3.1 5-4.6 12.8-4.3 17.4.7.8.9 1.4 1.8 1.9 2.8l.8.1c-.6-1.7-1.5-3.3-2.8-4.6z"/><path class="st1" d="M126.5 5.5c6.6 0 12.2 4.2 14.3 10.1l.4.1c-2.1-6.3-8.1-10.8-15.1-10.8-7-.1-13.1 4.7-15.1 11.1h.2l.9-.2c2-6 7.7-10.3 14.4-10.3zm-14.4 17.9c.4 2.1 1.4 4 3 5.7 4.6 5 12.4 5.3 17.4.7 1.1-1 2-2.2 2.6-3.5l1.7-.1 2.8-.4h.2c-.8 2.2-2.1 4.2-3.8 5.8-5.9 5.5-15.2 5.1-20.7-.8-1.9-2.1-3.2-4.7-3.6-7.3l.4-.1z"/><path class="st0" d="M110.8 23.2c1.2 7.3 7.5 12.9 15.1 12.9 6.7 0 12.4-4.4 14.5-10.4l1.1-.2c-2 6.5-8.1 11.3-15.2 11.3-7.9 0-14.6-5.9-15.7-13.6h.2z"/><path class="st2" d="M21.8 29.3v-5.8h1.4v2.4l3.1-2.4h1.9l-3.8 2.7 4.2 3h-2.1l-3.4-2.5v2.5h-1.3zm8.7 0v-1.1h5v-.9h-3.7c-.6 0-.9-.1-1.1-.3-.2-.2-.3-.6-.3-1.1v-2.4h1.3v2.7h3.8v-2.7h1.3v4.4c0 .5-.1.9-.3 1.1-.2.2-.6.3-1.1.3h-4.9zm12.3-4.8h-3V26h3c.2 0 .4 0 .5-.1.1-.1.1-.2.1-.4V25c0-.2 0-.3-.1-.4-.1 0-.3-.1-.5-.1zm-4.3 4.8v-5.8h4.9c.4 0 .8.1 1 .3.2.2.3.5.3.8v1.3c0 .4-.1.7-.3.8-.2.2-.5.3-1 .3h-3.5v2.2h-1.4zm7.6-4.4c0-.5.1-.9.3-1.1.2-.2.6-.3 1.1-.3h4.2c.6 0 .9.1 1.1.3.2.2.3.6.3 1.1v3c0 .5-.1.9-.3 1.1-.2.2-.6.3-1.1.3h-4.2c-.5 0-.9-.1-1.1-.3-.2-.2-.3-.6-.3-1.1v-3zm1.4 3.3h4.4v-3.6h-4.4v3.6zm11.6-3.7h-3V26h3c.2 0 .4 0 .5-.1.1-.1.1-.2.1-.4V25c0-.2 0-.3-.1-.4-.1 0-.2-.1-.5-.1zm-4.2 4.8v-5.8h4.9c.4 0 .8.1 1 .3.2.2.3.5.3.8v1.3c0 .4-.1.7-.3.8-.2.2-.6.3-1 .3h-3.5v2.2h-1.4zM66 24.6v4.7h-1.3v-4.7h-2.6v-1h6.6v1H66z"/></svg>